%TF.GenerationSoftware,KiCad,Pcbnew,9.0.6*%
%TF.CreationDate,2026-05-02T13:42:20+12:00*%
%TF.ProjectId,_autosave-baby shark,5f617574-6f73-4617-9665-2d6261627920,rev?*%
%TF.SameCoordinates,Original*%
%TF.FileFunction,Soldermask,Top*%
%TF.FilePolarity,Negative*%
%FSLAX46Y46*%
G04 Gerber Fmt 4.6, Leading zero omitted, Abs format (unit mm)*
G04 Created by KiCad (PCBNEW 9.0.6) date 2026-05-02 13:42:20*
%MOMM*%
%LPD*%
G01*
G04 APERTURE LIST*
G04 Aperture macros list*
%AMRoundRect*
0 Rectangle with rounded corners*
0 $1 Rounding radius*
0 $2 $3 $4 $5 $6 $7 $8 $9 X,Y pos of 4 corners*
0 Add a 4 corners polygon primitive as box body*
4,1,4,$2,$3,$4,$5,$6,$7,$8,$9,$2,$3,0*
0 Add four circle primitives for the rounded corners*
1,1,$1+$1,$2,$3*
1,1,$1+$1,$4,$5*
1,1,$1+$1,$6,$7*
1,1,$1+$1,$8,$9*
0 Add four rect primitives between the rounded corners*
20,1,$1+$1,$2,$3,$4,$5,0*
20,1,$1+$1,$4,$5,$6,$7,0*
20,1,$1+$1,$6,$7,$8,$9,0*
20,1,$1+$1,$8,$9,$2,$3,0*%
G04 Aperture macros list end*
%ADD10R,1.800000X1.800000*%
%ADD11C,1.800000*%
%ADD12C,1.440000*%
%ADD13RoundRect,0.250000X-0.550000X-0.550000X0.550000X-0.550000X0.550000X0.550000X-0.550000X0.550000X0*%
%ADD14C,1.600000*%
%ADD15RoundRect,0.150000X-0.825000X-0.150000X0.825000X-0.150000X0.825000X0.150000X-0.825000X0.150000X0*%
%ADD16C,2.000000*%
G04 APERTURE END LIST*
D10*
%TO.C,D1*%
X87225000Y-108500000D03*
D11*
X89765000Y-108500000D03*
%TD*%
D12*
%TO.C,R1*%
X121960000Y-109540000D03*
X124500000Y-107000000D03*
X121960000Y-104460000D03*
%TD*%
D13*
%TO.C,C1*%
X151000000Y-109500000D03*
D14*
X153500000Y-109500000D03*
%TD*%
D10*
%TO.C,D16*%
X124460000Y-98000000D03*
D11*
X127000000Y-98000000D03*
%TD*%
D10*
%TO.C,D13*%
X211460000Y-90000000D03*
D11*
X214000000Y-90000000D03*
%TD*%
D14*
%TO.C,R2*%
X133500000Y-112000000D03*
X133500000Y-104380000D03*
%TD*%
D10*
%TO.C,D10*%
X193960000Y-106500000D03*
D11*
X196500000Y-106500000D03*
%TD*%
D10*
%TO.C,D9*%
X201460000Y-99000000D03*
D11*
X204000000Y-99000000D03*
%TD*%
D10*
%TO.C,D11*%
X115960000Y-95000000D03*
D11*
X118500000Y-95000000D03*
%TD*%
D10*
%TO.C,D3*%
X104000000Y-101500000D03*
D11*
X106540000Y-101500000D03*
%TD*%
D13*
%TO.C,BT1*%
X139400000Y-111500000D03*
D14*
X143000000Y-111500000D03*
%TD*%
D15*
%TO.C,U1*%
X149550000Y-98960000D03*
X149550000Y-100230000D03*
X149550000Y-101500000D03*
X149550000Y-102770000D03*
X154500000Y-102770000D03*
X154500000Y-101500000D03*
X154500000Y-100230000D03*
X154500000Y-98960000D03*
%TD*%
D10*
%TO.C,D2*%
X119460000Y-124000000D03*
D11*
X122000000Y-124000000D03*
%TD*%
D10*
%TO.C,D6*%
X184460000Y-110500000D03*
D11*
X187000000Y-110500000D03*
%TD*%
D10*
%TO.C,D7*%
X170460000Y-108500000D03*
D11*
X173000000Y-108500000D03*
%TD*%
D10*
%TO.C,D5*%
X204460000Y-109000000D03*
D11*
X207000000Y-109000000D03*
%TD*%
D16*
%TO.C,SW1*%
X138000000Y-101000000D03*
X144500000Y-101000000D03*
X138000000Y-105500000D03*
X144500000Y-105500000D03*
%TD*%
D10*
%TO.C,D8*%
X160960000Y-110000000D03*
D11*
X163500000Y-110000000D03*
%TD*%
D10*
%TO.C,D14*%
X212960000Y-113500000D03*
D11*
X215500000Y-113500000D03*
%TD*%
D10*
%TO.C,D4*%
X100225000Y-111500000D03*
D11*
X102765000Y-111500000D03*
%TD*%
D10*
%TO.C,D12*%
X182960000Y-101000000D03*
D11*
X185500000Y-101000000D03*
%TD*%
D14*
%TO.C,R3*%
X130000000Y-112000000D03*
X130000000Y-104380000D03*
%TD*%
D10*
%TO.C,D15*%
X112500000Y-115500000D03*
D11*
X115040000Y-115500000D03*
%TD*%
M02*
