%TF.GenerationSoftware,KiCad,Pcbnew,9.0.6*%
%TF.CreationDate,2026-05-02T13:42:20+12:00*%
%TF.ProjectId,_autosave-baby shark,5f617574-6f73-4617-9665-2d6261627920,rev?*%
%TF.SameCoordinates,Original*%
%TF.FileFunction,Legend,Top*%
%TF.FilePolarity,Positive*%
%FSLAX46Y46*%
G04 Gerber Fmt 4.6, Leading zero omitted, Abs format (unit mm)*
G04 Created by KiCad (PCBNEW 9.0.6) date 2026-05-02 13:42:20*
%MOMM*%
%LPD*%
G01*
G04 APERTURE LIST*
%ADD10C,0.150000*%
%ADD11C,0.120000*%
G04 APERTURE END LIST*
D10*
X87756905Y-104994819D02*
X87756905Y-103994819D01*
X87756905Y-103994819D02*
X87995000Y-103994819D01*
X87995000Y-103994819D02*
X88137857Y-104042438D01*
X88137857Y-104042438D02*
X88233095Y-104137676D01*
X88233095Y-104137676D02*
X88280714Y-104232914D01*
X88280714Y-104232914D02*
X88328333Y-104423390D01*
X88328333Y-104423390D02*
X88328333Y-104566247D01*
X88328333Y-104566247D02*
X88280714Y-104756723D01*
X88280714Y-104756723D02*
X88233095Y-104851961D01*
X88233095Y-104851961D02*
X88137857Y-104947200D01*
X88137857Y-104947200D02*
X87995000Y-104994819D01*
X87995000Y-104994819D02*
X87756905Y-104994819D01*
X89280714Y-104994819D02*
X88709286Y-104994819D01*
X88995000Y-104994819D02*
X88995000Y-103994819D01*
X88995000Y-103994819D02*
X88899762Y-104137676D01*
X88899762Y-104137676D02*
X88804524Y-104232914D01*
X88804524Y-104232914D02*
X88709286Y-104280533D01*
X121778333Y-101439819D02*
X121445000Y-100963628D01*
X121206905Y-101439819D02*
X121206905Y-100439819D01*
X121206905Y-100439819D02*
X121587857Y-100439819D01*
X121587857Y-100439819D02*
X121683095Y-100487438D01*
X121683095Y-100487438D02*
X121730714Y-100535057D01*
X121730714Y-100535057D02*
X121778333Y-100630295D01*
X121778333Y-100630295D02*
X121778333Y-100773152D01*
X121778333Y-100773152D02*
X121730714Y-100868390D01*
X121730714Y-100868390D02*
X121683095Y-100916009D01*
X121683095Y-100916009D02*
X121587857Y-100963628D01*
X121587857Y-100963628D02*
X121206905Y-100963628D01*
X122730714Y-101439819D02*
X122159286Y-101439819D01*
X122445000Y-101439819D02*
X122445000Y-100439819D01*
X122445000Y-100439819D02*
X122349762Y-100582676D01*
X122349762Y-100582676D02*
X122254524Y-100677914D01*
X122254524Y-100677914D02*
X122159286Y-100725533D01*
X152083333Y-106109580D02*
X152035714Y-106157200D01*
X152035714Y-106157200D02*
X151892857Y-106204819D01*
X151892857Y-106204819D02*
X151797619Y-106204819D01*
X151797619Y-106204819D02*
X151654762Y-106157200D01*
X151654762Y-106157200D02*
X151559524Y-106061961D01*
X151559524Y-106061961D02*
X151511905Y-105966723D01*
X151511905Y-105966723D02*
X151464286Y-105776247D01*
X151464286Y-105776247D02*
X151464286Y-105633390D01*
X151464286Y-105633390D02*
X151511905Y-105442914D01*
X151511905Y-105442914D02*
X151559524Y-105347676D01*
X151559524Y-105347676D02*
X151654762Y-105252438D01*
X151654762Y-105252438D02*
X151797619Y-105204819D01*
X151797619Y-105204819D02*
X151892857Y-105204819D01*
X151892857Y-105204819D02*
X152035714Y-105252438D01*
X152035714Y-105252438D02*
X152083333Y-105300057D01*
X153035714Y-106204819D02*
X152464286Y-106204819D01*
X152750000Y-106204819D02*
X152750000Y-105204819D01*
X152750000Y-105204819D02*
X152654762Y-105347676D01*
X152654762Y-105347676D02*
X152559524Y-105442914D01*
X152559524Y-105442914D02*
X152464286Y-105490533D01*
X124515714Y-93494819D02*
X124515714Y-92494819D01*
X124515714Y-92494819D02*
X124753809Y-92494819D01*
X124753809Y-92494819D02*
X124896666Y-92542438D01*
X124896666Y-92542438D02*
X124991904Y-92637676D01*
X124991904Y-92637676D02*
X125039523Y-92732914D01*
X125039523Y-92732914D02*
X125087142Y-92923390D01*
X125087142Y-92923390D02*
X125087142Y-93066247D01*
X125087142Y-93066247D02*
X125039523Y-93256723D01*
X125039523Y-93256723D02*
X124991904Y-93351961D01*
X124991904Y-93351961D02*
X124896666Y-93447200D01*
X124896666Y-93447200D02*
X124753809Y-93494819D01*
X124753809Y-93494819D02*
X124515714Y-93494819D01*
X126039523Y-93494819D02*
X125468095Y-93494819D01*
X125753809Y-93494819D02*
X125753809Y-92494819D01*
X125753809Y-92494819D02*
X125658571Y-92637676D01*
X125658571Y-92637676D02*
X125563333Y-92732914D01*
X125563333Y-92732914D02*
X125468095Y-92780533D01*
X126896666Y-92494819D02*
X126706190Y-92494819D01*
X126706190Y-92494819D02*
X126610952Y-92542438D01*
X126610952Y-92542438D02*
X126563333Y-92590057D01*
X126563333Y-92590057D02*
X126468095Y-92732914D01*
X126468095Y-92732914D02*
X126420476Y-92923390D01*
X126420476Y-92923390D02*
X126420476Y-93304342D01*
X126420476Y-93304342D02*
X126468095Y-93399580D01*
X126468095Y-93399580D02*
X126515714Y-93447200D01*
X126515714Y-93447200D02*
X126610952Y-93494819D01*
X126610952Y-93494819D02*
X126801428Y-93494819D01*
X126801428Y-93494819D02*
X126896666Y-93447200D01*
X126896666Y-93447200D02*
X126944285Y-93399580D01*
X126944285Y-93399580D02*
X126991904Y-93304342D01*
X126991904Y-93304342D02*
X126991904Y-93066247D01*
X126991904Y-93066247D02*
X126944285Y-92971009D01*
X126944285Y-92971009D02*
X126896666Y-92923390D01*
X126896666Y-92923390D02*
X126801428Y-92875771D01*
X126801428Y-92875771D02*
X126610952Y-92875771D01*
X126610952Y-92875771D02*
X126515714Y-92923390D01*
X126515714Y-92923390D02*
X126468095Y-92971009D01*
X126468095Y-92971009D02*
X126420476Y-93066247D01*
X211515714Y-86494819D02*
X211515714Y-85494819D01*
X211515714Y-85494819D02*
X211753809Y-85494819D01*
X211753809Y-85494819D02*
X211896666Y-85542438D01*
X211896666Y-85542438D02*
X211991904Y-85637676D01*
X211991904Y-85637676D02*
X212039523Y-85732914D01*
X212039523Y-85732914D02*
X212087142Y-85923390D01*
X212087142Y-85923390D02*
X212087142Y-86066247D01*
X212087142Y-86066247D02*
X212039523Y-86256723D01*
X212039523Y-86256723D02*
X211991904Y-86351961D01*
X211991904Y-86351961D02*
X211896666Y-86447200D01*
X211896666Y-86447200D02*
X211753809Y-86494819D01*
X211753809Y-86494819D02*
X211515714Y-86494819D01*
X213039523Y-86494819D02*
X212468095Y-86494819D01*
X212753809Y-86494819D02*
X212753809Y-85494819D01*
X212753809Y-85494819D02*
X212658571Y-85637676D01*
X212658571Y-85637676D02*
X212563333Y-85732914D01*
X212563333Y-85732914D02*
X212468095Y-85780533D01*
X213372857Y-85494819D02*
X213991904Y-85494819D01*
X213991904Y-85494819D02*
X213658571Y-85875771D01*
X213658571Y-85875771D02*
X213801428Y-85875771D01*
X213801428Y-85875771D02*
X213896666Y-85923390D01*
X213896666Y-85923390D02*
X213944285Y-85971009D01*
X213944285Y-85971009D02*
X213991904Y-86066247D01*
X213991904Y-86066247D02*
X213991904Y-86304342D01*
X213991904Y-86304342D02*
X213944285Y-86399580D01*
X213944285Y-86399580D02*
X213896666Y-86447200D01*
X213896666Y-86447200D02*
X213801428Y-86494819D01*
X213801428Y-86494819D02*
X213515714Y-86494819D01*
X213515714Y-86494819D02*
X213420476Y-86447200D01*
X213420476Y-86447200D02*
X213372857Y-86399580D01*
X136524819Y-112246666D02*
X136048628Y-112579999D01*
X136524819Y-112818094D02*
X135524819Y-112818094D01*
X135524819Y-112818094D02*
X135524819Y-112437142D01*
X135524819Y-112437142D02*
X135572438Y-112341904D01*
X135572438Y-112341904D02*
X135620057Y-112294285D01*
X135620057Y-112294285D02*
X135715295Y-112246666D01*
X135715295Y-112246666D02*
X135858152Y-112246666D01*
X135858152Y-112246666D02*
X135953390Y-112294285D01*
X135953390Y-112294285D02*
X136001009Y-112341904D01*
X136001009Y-112341904D02*
X136048628Y-112437142D01*
X136048628Y-112437142D02*
X136048628Y-112818094D01*
X135620057Y-111865713D02*
X135572438Y-111818094D01*
X135572438Y-111818094D02*
X135524819Y-111722856D01*
X135524819Y-111722856D02*
X135524819Y-111484761D01*
X135524819Y-111484761D02*
X135572438Y-111389523D01*
X135572438Y-111389523D02*
X135620057Y-111341904D01*
X135620057Y-111341904D02*
X135715295Y-111294285D01*
X135715295Y-111294285D02*
X135810533Y-111294285D01*
X135810533Y-111294285D02*
X135953390Y-111341904D01*
X135953390Y-111341904D02*
X136524819Y-111913332D01*
X136524819Y-111913332D02*
X136524819Y-111294285D01*
X194015714Y-102994819D02*
X194015714Y-101994819D01*
X194015714Y-101994819D02*
X194253809Y-101994819D01*
X194253809Y-101994819D02*
X194396666Y-102042438D01*
X194396666Y-102042438D02*
X194491904Y-102137676D01*
X194491904Y-102137676D02*
X194539523Y-102232914D01*
X194539523Y-102232914D02*
X194587142Y-102423390D01*
X194587142Y-102423390D02*
X194587142Y-102566247D01*
X194587142Y-102566247D02*
X194539523Y-102756723D01*
X194539523Y-102756723D02*
X194491904Y-102851961D01*
X194491904Y-102851961D02*
X194396666Y-102947200D01*
X194396666Y-102947200D02*
X194253809Y-102994819D01*
X194253809Y-102994819D02*
X194015714Y-102994819D01*
X195539523Y-102994819D02*
X194968095Y-102994819D01*
X195253809Y-102994819D02*
X195253809Y-101994819D01*
X195253809Y-101994819D02*
X195158571Y-102137676D01*
X195158571Y-102137676D02*
X195063333Y-102232914D01*
X195063333Y-102232914D02*
X194968095Y-102280533D01*
X196158571Y-101994819D02*
X196253809Y-101994819D01*
X196253809Y-101994819D02*
X196349047Y-102042438D01*
X196349047Y-102042438D02*
X196396666Y-102090057D01*
X196396666Y-102090057D02*
X196444285Y-102185295D01*
X196444285Y-102185295D02*
X196491904Y-102375771D01*
X196491904Y-102375771D02*
X196491904Y-102613866D01*
X196491904Y-102613866D02*
X196444285Y-102804342D01*
X196444285Y-102804342D02*
X196396666Y-102899580D01*
X196396666Y-102899580D02*
X196349047Y-102947200D01*
X196349047Y-102947200D02*
X196253809Y-102994819D01*
X196253809Y-102994819D02*
X196158571Y-102994819D01*
X196158571Y-102994819D02*
X196063333Y-102947200D01*
X196063333Y-102947200D02*
X196015714Y-102899580D01*
X196015714Y-102899580D02*
X195968095Y-102804342D01*
X195968095Y-102804342D02*
X195920476Y-102613866D01*
X195920476Y-102613866D02*
X195920476Y-102375771D01*
X195920476Y-102375771D02*
X195968095Y-102185295D01*
X195968095Y-102185295D02*
X196015714Y-102090057D01*
X196015714Y-102090057D02*
X196063333Y-102042438D01*
X196063333Y-102042438D02*
X196158571Y-101994819D01*
X201991905Y-95494819D02*
X201991905Y-94494819D01*
X201991905Y-94494819D02*
X202230000Y-94494819D01*
X202230000Y-94494819D02*
X202372857Y-94542438D01*
X202372857Y-94542438D02*
X202468095Y-94637676D01*
X202468095Y-94637676D02*
X202515714Y-94732914D01*
X202515714Y-94732914D02*
X202563333Y-94923390D01*
X202563333Y-94923390D02*
X202563333Y-95066247D01*
X202563333Y-95066247D02*
X202515714Y-95256723D01*
X202515714Y-95256723D02*
X202468095Y-95351961D01*
X202468095Y-95351961D02*
X202372857Y-95447200D01*
X202372857Y-95447200D02*
X202230000Y-95494819D01*
X202230000Y-95494819D02*
X201991905Y-95494819D01*
X203039524Y-95494819D02*
X203230000Y-95494819D01*
X203230000Y-95494819D02*
X203325238Y-95447200D01*
X203325238Y-95447200D02*
X203372857Y-95399580D01*
X203372857Y-95399580D02*
X203468095Y-95256723D01*
X203468095Y-95256723D02*
X203515714Y-95066247D01*
X203515714Y-95066247D02*
X203515714Y-94685295D01*
X203515714Y-94685295D02*
X203468095Y-94590057D01*
X203468095Y-94590057D02*
X203420476Y-94542438D01*
X203420476Y-94542438D02*
X203325238Y-94494819D01*
X203325238Y-94494819D02*
X203134762Y-94494819D01*
X203134762Y-94494819D02*
X203039524Y-94542438D01*
X203039524Y-94542438D02*
X202991905Y-94590057D01*
X202991905Y-94590057D02*
X202944286Y-94685295D01*
X202944286Y-94685295D02*
X202944286Y-94923390D01*
X202944286Y-94923390D02*
X202991905Y-95018628D01*
X202991905Y-95018628D02*
X203039524Y-95066247D01*
X203039524Y-95066247D02*
X203134762Y-95113866D01*
X203134762Y-95113866D02*
X203325238Y-95113866D01*
X203325238Y-95113866D02*
X203420476Y-95066247D01*
X203420476Y-95066247D02*
X203468095Y-95018628D01*
X203468095Y-95018628D02*
X203515714Y-94923390D01*
X116015714Y-91494819D02*
X116015714Y-90494819D01*
X116015714Y-90494819D02*
X116253809Y-90494819D01*
X116253809Y-90494819D02*
X116396666Y-90542438D01*
X116396666Y-90542438D02*
X116491904Y-90637676D01*
X116491904Y-90637676D02*
X116539523Y-90732914D01*
X116539523Y-90732914D02*
X116587142Y-90923390D01*
X116587142Y-90923390D02*
X116587142Y-91066247D01*
X116587142Y-91066247D02*
X116539523Y-91256723D01*
X116539523Y-91256723D02*
X116491904Y-91351961D01*
X116491904Y-91351961D02*
X116396666Y-91447200D01*
X116396666Y-91447200D02*
X116253809Y-91494819D01*
X116253809Y-91494819D02*
X116015714Y-91494819D01*
X117539523Y-91494819D02*
X116968095Y-91494819D01*
X117253809Y-91494819D02*
X117253809Y-90494819D01*
X117253809Y-90494819D02*
X117158571Y-90637676D01*
X117158571Y-90637676D02*
X117063333Y-90732914D01*
X117063333Y-90732914D02*
X116968095Y-90780533D01*
X118491904Y-91494819D02*
X117920476Y-91494819D01*
X118206190Y-91494819D02*
X118206190Y-90494819D01*
X118206190Y-90494819D02*
X118110952Y-90637676D01*
X118110952Y-90637676D02*
X118015714Y-90732914D01*
X118015714Y-90732914D02*
X117920476Y-90780533D01*
X109131905Y-103134819D02*
X109131905Y-102134819D01*
X109131905Y-102134819D02*
X109370000Y-102134819D01*
X109370000Y-102134819D02*
X109512857Y-102182438D01*
X109512857Y-102182438D02*
X109608095Y-102277676D01*
X109608095Y-102277676D02*
X109655714Y-102372914D01*
X109655714Y-102372914D02*
X109703333Y-102563390D01*
X109703333Y-102563390D02*
X109703333Y-102706247D01*
X109703333Y-102706247D02*
X109655714Y-102896723D01*
X109655714Y-102896723D02*
X109608095Y-102991961D01*
X109608095Y-102991961D02*
X109512857Y-103087200D01*
X109512857Y-103087200D02*
X109370000Y-103134819D01*
X109370000Y-103134819D02*
X109131905Y-103134819D01*
X110036667Y-102134819D02*
X110655714Y-102134819D01*
X110655714Y-102134819D02*
X110322381Y-102515771D01*
X110322381Y-102515771D02*
X110465238Y-102515771D01*
X110465238Y-102515771D02*
X110560476Y-102563390D01*
X110560476Y-102563390D02*
X110608095Y-102611009D01*
X110608095Y-102611009D02*
X110655714Y-102706247D01*
X110655714Y-102706247D02*
X110655714Y-102944342D01*
X110655714Y-102944342D02*
X110608095Y-103039580D01*
X110608095Y-103039580D02*
X110560476Y-103087200D01*
X110560476Y-103087200D02*
X110465238Y-103134819D01*
X110465238Y-103134819D02*
X110179524Y-103134819D01*
X110179524Y-103134819D02*
X110084286Y-103087200D01*
X110084286Y-103087200D02*
X110036667Y-103039580D01*
X140414285Y-109431009D02*
X140557142Y-109478628D01*
X140557142Y-109478628D02*
X140604761Y-109526247D01*
X140604761Y-109526247D02*
X140652380Y-109621485D01*
X140652380Y-109621485D02*
X140652380Y-109764342D01*
X140652380Y-109764342D02*
X140604761Y-109859580D01*
X140604761Y-109859580D02*
X140557142Y-109907200D01*
X140557142Y-109907200D02*
X140461904Y-109954819D01*
X140461904Y-109954819D02*
X140080952Y-109954819D01*
X140080952Y-109954819D02*
X140080952Y-108954819D01*
X140080952Y-108954819D02*
X140414285Y-108954819D01*
X140414285Y-108954819D02*
X140509523Y-109002438D01*
X140509523Y-109002438D02*
X140557142Y-109050057D01*
X140557142Y-109050057D02*
X140604761Y-109145295D01*
X140604761Y-109145295D02*
X140604761Y-109240533D01*
X140604761Y-109240533D02*
X140557142Y-109335771D01*
X140557142Y-109335771D02*
X140509523Y-109383390D01*
X140509523Y-109383390D02*
X140414285Y-109431009D01*
X140414285Y-109431009D02*
X140080952Y-109431009D01*
X140938095Y-108954819D02*
X141509523Y-108954819D01*
X141223809Y-109954819D02*
X141223809Y-108954819D01*
X142366666Y-109954819D02*
X141795238Y-109954819D01*
X142080952Y-109954819D02*
X142080952Y-108954819D01*
X142080952Y-108954819D02*
X141985714Y-109097676D01*
X141985714Y-109097676D02*
X141890476Y-109192914D01*
X141890476Y-109192914D02*
X141795238Y-109240533D01*
X151263095Y-96919819D02*
X151263095Y-97729342D01*
X151263095Y-97729342D02*
X151310714Y-97824580D01*
X151310714Y-97824580D02*
X151358333Y-97872200D01*
X151358333Y-97872200D02*
X151453571Y-97919819D01*
X151453571Y-97919819D02*
X151644047Y-97919819D01*
X151644047Y-97919819D02*
X151739285Y-97872200D01*
X151739285Y-97872200D02*
X151786904Y-97824580D01*
X151786904Y-97824580D02*
X151834523Y-97729342D01*
X151834523Y-97729342D02*
X151834523Y-96919819D01*
X152834523Y-97919819D02*
X152263095Y-97919819D01*
X152548809Y-97919819D02*
X152548809Y-96919819D01*
X152548809Y-96919819D02*
X152453571Y-97062676D01*
X152453571Y-97062676D02*
X152358333Y-97157914D01*
X152358333Y-97157914D02*
X152263095Y-97205533D01*
X119991905Y-120494819D02*
X119991905Y-119494819D01*
X119991905Y-119494819D02*
X120230000Y-119494819D01*
X120230000Y-119494819D02*
X120372857Y-119542438D01*
X120372857Y-119542438D02*
X120468095Y-119637676D01*
X120468095Y-119637676D02*
X120515714Y-119732914D01*
X120515714Y-119732914D02*
X120563333Y-119923390D01*
X120563333Y-119923390D02*
X120563333Y-120066247D01*
X120563333Y-120066247D02*
X120515714Y-120256723D01*
X120515714Y-120256723D02*
X120468095Y-120351961D01*
X120468095Y-120351961D02*
X120372857Y-120447200D01*
X120372857Y-120447200D02*
X120230000Y-120494819D01*
X120230000Y-120494819D02*
X119991905Y-120494819D01*
X120944286Y-119590057D02*
X120991905Y-119542438D01*
X120991905Y-119542438D02*
X121087143Y-119494819D01*
X121087143Y-119494819D02*
X121325238Y-119494819D01*
X121325238Y-119494819D02*
X121420476Y-119542438D01*
X121420476Y-119542438D02*
X121468095Y-119590057D01*
X121468095Y-119590057D02*
X121515714Y-119685295D01*
X121515714Y-119685295D02*
X121515714Y-119780533D01*
X121515714Y-119780533D02*
X121468095Y-119923390D01*
X121468095Y-119923390D02*
X120896667Y-120494819D01*
X120896667Y-120494819D02*
X121515714Y-120494819D01*
X184991905Y-106994819D02*
X184991905Y-105994819D01*
X184991905Y-105994819D02*
X185230000Y-105994819D01*
X185230000Y-105994819D02*
X185372857Y-106042438D01*
X185372857Y-106042438D02*
X185468095Y-106137676D01*
X185468095Y-106137676D02*
X185515714Y-106232914D01*
X185515714Y-106232914D02*
X185563333Y-106423390D01*
X185563333Y-106423390D02*
X185563333Y-106566247D01*
X185563333Y-106566247D02*
X185515714Y-106756723D01*
X185515714Y-106756723D02*
X185468095Y-106851961D01*
X185468095Y-106851961D02*
X185372857Y-106947200D01*
X185372857Y-106947200D02*
X185230000Y-106994819D01*
X185230000Y-106994819D02*
X184991905Y-106994819D01*
X186420476Y-105994819D02*
X186230000Y-105994819D01*
X186230000Y-105994819D02*
X186134762Y-106042438D01*
X186134762Y-106042438D02*
X186087143Y-106090057D01*
X186087143Y-106090057D02*
X185991905Y-106232914D01*
X185991905Y-106232914D02*
X185944286Y-106423390D01*
X185944286Y-106423390D02*
X185944286Y-106804342D01*
X185944286Y-106804342D02*
X185991905Y-106899580D01*
X185991905Y-106899580D02*
X186039524Y-106947200D01*
X186039524Y-106947200D02*
X186134762Y-106994819D01*
X186134762Y-106994819D02*
X186325238Y-106994819D01*
X186325238Y-106994819D02*
X186420476Y-106947200D01*
X186420476Y-106947200D02*
X186468095Y-106899580D01*
X186468095Y-106899580D02*
X186515714Y-106804342D01*
X186515714Y-106804342D02*
X186515714Y-106566247D01*
X186515714Y-106566247D02*
X186468095Y-106471009D01*
X186468095Y-106471009D02*
X186420476Y-106423390D01*
X186420476Y-106423390D02*
X186325238Y-106375771D01*
X186325238Y-106375771D02*
X186134762Y-106375771D01*
X186134762Y-106375771D02*
X186039524Y-106423390D01*
X186039524Y-106423390D02*
X185991905Y-106471009D01*
X185991905Y-106471009D02*
X185944286Y-106566247D01*
X170991905Y-104994819D02*
X170991905Y-103994819D01*
X170991905Y-103994819D02*
X171230000Y-103994819D01*
X171230000Y-103994819D02*
X171372857Y-104042438D01*
X171372857Y-104042438D02*
X171468095Y-104137676D01*
X171468095Y-104137676D02*
X171515714Y-104232914D01*
X171515714Y-104232914D02*
X171563333Y-104423390D01*
X171563333Y-104423390D02*
X171563333Y-104566247D01*
X171563333Y-104566247D02*
X171515714Y-104756723D01*
X171515714Y-104756723D02*
X171468095Y-104851961D01*
X171468095Y-104851961D02*
X171372857Y-104947200D01*
X171372857Y-104947200D02*
X171230000Y-104994819D01*
X171230000Y-104994819D02*
X170991905Y-104994819D01*
X171896667Y-103994819D02*
X172563333Y-103994819D01*
X172563333Y-103994819D02*
X172134762Y-104994819D01*
X204991905Y-105494819D02*
X204991905Y-104494819D01*
X204991905Y-104494819D02*
X205230000Y-104494819D01*
X205230000Y-104494819D02*
X205372857Y-104542438D01*
X205372857Y-104542438D02*
X205468095Y-104637676D01*
X205468095Y-104637676D02*
X205515714Y-104732914D01*
X205515714Y-104732914D02*
X205563333Y-104923390D01*
X205563333Y-104923390D02*
X205563333Y-105066247D01*
X205563333Y-105066247D02*
X205515714Y-105256723D01*
X205515714Y-105256723D02*
X205468095Y-105351961D01*
X205468095Y-105351961D02*
X205372857Y-105447200D01*
X205372857Y-105447200D02*
X205230000Y-105494819D01*
X205230000Y-105494819D02*
X204991905Y-105494819D01*
X206468095Y-104494819D02*
X205991905Y-104494819D01*
X205991905Y-104494819D02*
X205944286Y-104971009D01*
X205944286Y-104971009D02*
X205991905Y-104923390D01*
X205991905Y-104923390D02*
X206087143Y-104875771D01*
X206087143Y-104875771D02*
X206325238Y-104875771D01*
X206325238Y-104875771D02*
X206420476Y-104923390D01*
X206420476Y-104923390D02*
X206468095Y-104971009D01*
X206468095Y-104971009D02*
X206515714Y-105066247D01*
X206515714Y-105066247D02*
X206515714Y-105304342D01*
X206515714Y-105304342D02*
X206468095Y-105399580D01*
X206468095Y-105399580D02*
X206420476Y-105447200D01*
X206420476Y-105447200D02*
X206325238Y-105494819D01*
X206325238Y-105494819D02*
X206087143Y-105494819D01*
X206087143Y-105494819D02*
X205991905Y-105447200D01*
X205991905Y-105447200D02*
X205944286Y-105399580D01*
X139916667Y-99407200D02*
X140059524Y-99454819D01*
X140059524Y-99454819D02*
X140297619Y-99454819D01*
X140297619Y-99454819D02*
X140392857Y-99407200D01*
X140392857Y-99407200D02*
X140440476Y-99359580D01*
X140440476Y-99359580D02*
X140488095Y-99264342D01*
X140488095Y-99264342D02*
X140488095Y-99169104D01*
X140488095Y-99169104D02*
X140440476Y-99073866D01*
X140440476Y-99073866D02*
X140392857Y-99026247D01*
X140392857Y-99026247D02*
X140297619Y-98978628D01*
X140297619Y-98978628D02*
X140107143Y-98931009D01*
X140107143Y-98931009D02*
X140011905Y-98883390D01*
X140011905Y-98883390D02*
X139964286Y-98835771D01*
X139964286Y-98835771D02*
X139916667Y-98740533D01*
X139916667Y-98740533D02*
X139916667Y-98645295D01*
X139916667Y-98645295D02*
X139964286Y-98550057D01*
X139964286Y-98550057D02*
X140011905Y-98502438D01*
X140011905Y-98502438D02*
X140107143Y-98454819D01*
X140107143Y-98454819D02*
X140345238Y-98454819D01*
X140345238Y-98454819D02*
X140488095Y-98502438D01*
X140821429Y-98454819D02*
X141059524Y-99454819D01*
X141059524Y-99454819D02*
X141250000Y-98740533D01*
X141250000Y-98740533D02*
X141440476Y-99454819D01*
X141440476Y-99454819D02*
X141678572Y-98454819D01*
X142583333Y-99454819D02*
X142011905Y-99454819D01*
X142297619Y-99454819D02*
X142297619Y-98454819D01*
X142297619Y-98454819D02*
X142202381Y-98597676D01*
X142202381Y-98597676D02*
X142107143Y-98692914D01*
X142107143Y-98692914D02*
X142011905Y-98740533D01*
X161491905Y-106494819D02*
X161491905Y-105494819D01*
X161491905Y-105494819D02*
X161730000Y-105494819D01*
X161730000Y-105494819D02*
X161872857Y-105542438D01*
X161872857Y-105542438D02*
X161968095Y-105637676D01*
X161968095Y-105637676D02*
X162015714Y-105732914D01*
X162015714Y-105732914D02*
X162063333Y-105923390D01*
X162063333Y-105923390D02*
X162063333Y-106066247D01*
X162063333Y-106066247D02*
X162015714Y-106256723D01*
X162015714Y-106256723D02*
X161968095Y-106351961D01*
X161968095Y-106351961D02*
X161872857Y-106447200D01*
X161872857Y-106447200D02*
X161730000Y-106494819D01*
X161730000Y-106494819D02*
X161491905Y-106494819D01*
X162634762Y-105923390D02*
X162539524Y-105875771D01*
X162539524Y-105875771D02*
X162491905Y-105828152D01*
X162491905Y-105828152D02*
X162444286Y-105732914D01*
X162444286Y-105732914D02*
X162444286Y-105685295D01*
X162444286Y-105685295D02*
X162491905Y-105590057D01*
X162491905Y-105590057D02*
X162539524Y-105542438D01*
X162539524Y-105542438D02*
X162634762Y-105494819D01*
X162634762Y-105494819D02*
X162825238Y-105494819D01*
X162825238Y-105494819D02*
X162920476Y-105542438D01*
X162920476Y-105542438D02*
X162968095Y-105590057D01*
X162968095Y-105590057D02*
X163015714Y-105685295D01*
X163015714Y-105685295D02*
X163015714Y-105732914D01*
X163015714Y-105732914D02*
X162968095Y-105828152D01*
X162968095Y-105828152D02*
X162920476Y-105875771D01*
X162920476Y-105875771D02*
X162825238Y-105923390D01*
X162825238Y-105923390D02*
X162634762Y-105923390D01*
X162634762Y-105923390D02*
X162539524Y-105971009D01*
X162539524Y-105971009D02*
X162491905Y-106018628D01*
X162491905Y-106018628D02*
X162444286Y-106113866D01*
X162444286Y-106113866D02*
X162444286Y-106304342D01*
X162444286Y-106304342D02*
X162491905Y-106399580D01*
X162491905Y-106399580D02*
X162539524Y-106447200D01*
X162539524Y-106447200D02*
X162634762Y-106494819D01*
X162634762Y-106494819D02*
X162825238Y-106494819D01*
X162825238Y-106494819D02*
X162920476Y-106447200D01*
X162920476Y-106447200D02*
X162968095Y-106399580D01*
X162968095Y-106399580D02*
X163015714Y-106304342D01*
X163015714Y-106304342D02*
X163015714Y-106113866D01*
X163015714Y-106113866D02*
X162968095Y-106018628D01*
X162968095Y-106018628D02*
X162920476Y-105971009D01*
X162920476Y-105971009D02*
X162825238Y-105923390D01*
X213015714Y-109994819D02*
X213015714Y-108994819D01*
X213015714Y-108994819D02*
X213253809Y-108994819D01*
X213253809Y-108994819D02*
X213396666Y-109042438D01*
X213396666Y-109042438D02*
X213491904Y-109137676D01*
X213491904Y-109137676D02*
X213539523Y-109232914D01*
X213539523Y-109232914D02*
X213587142Y-109423390D01*
X213587142Y-109423390D02*
X213587142Y-109566247D01*
X213587142Y-109566247D02*
X213539523Y-109756723D01*
X213539523Y-109756723D02*
X213491904Y-109851961D01*
X213491904Y-109851961D02*
X213396666Y-109947200D01*
X213396666Y-109947200D02*
X213253809Y-109994819D01*
X213253809Y-109994819D02*
X213015714Y-109994819D01*
X214539523Y-109994819D02*
X213968095Y-109994819D01*
X214253809Y-109994819D02*
X214253809Y-108994819D01*
X214253809Y-108994819D02*
X214158571Y-109137676D01*
X214158571Y-109137676D02*
X214063333Y-109232914D01*
X214063333Y-109232914D02*
X213968095Y-109280533D01*
X215396666Y-109328152D02*
X215396666Y-109994819D01*
X215158571Y-108947200D02*
X214920476Y-109661485D01*
X214920476Y-109661485D02*
X215539523Y-109661485D01*
X100756905Y-107994819D02*
X100756905Y-106994819D01*
X100756905Y-106994819D02*
X100995000Y-106994819D01*
X100995000Y-106994819D02*
X101137857Y-107042438D01*
X101137857Y-107042438D02*
X101233095Y-107137676D01*
X101233095Y-107137676D02*
X101280714Y-107232914D01*
X101280714Y-107232914D02*
X101328333Y-107423390D01*
X101328333Y-107423390D02*
X101328333Y-107566247D01*
X101328333Y-107566247D02*
X101280714Y-107756723D01*
X101280714Y-107756723D02*
X101233095Y-107851961D01*
X101233095Y-107851961D02*
X101137857Y-107947200D01*
X101137857Y-107947200D02*
X100995000Y-107994819D01*
X100995000Y-107994819D02*
X100756905Y-107994819D01*
X102185476Y-107328152D02*
X102185476Y-107994819D01*
X101947381Y-106947200D02*
X101709286Y-107661485D01*
X101709286Y-107661485D02*
X102328333Y-107661485D01*
X183015714Y-97494819D02*
X183015714Y-96494819D01*
X183015714Y-96494819D02*
X183253809Y-96494819D01*
X183253809Y-96494819D02*
X183396666Y-96542438D01*
X183396666Y-96542438D02*
X183491904Y-96637676D01*
X183491904Y-96637676D02*
X183539523Y-96732914D01*
X183539523Y-96732914D02*
X183587142Y-96923390D01*
X183587142Y-96923390D02*
X183587142Y-97066247D01*
X183587142Y-97066247D02*
X183539523Y-97256723D01*
X183539523Y-97256723D02*
X183491904Y-97351961D01*
X183491904Y-97351961D02*
X183396666Y-97447200D01*
X183396666Y-97447200D02*
X183253809Y-97494819D01*
X183253809Y-97494819D02*
X183015714Y-97494819D01*
X184539523Y-97494819D02*
X183968095Y-97494819D01*
X184253809Y-97494819D02*
X184253809Y-96494819D01*
X184253809Y-96494819D02*
X184158571Y-96637676D01*
X184158571Y-96637676D02*
X184063333Y-96732914D01*
X184063333Y-96732914D02*
X183968095Y-96780533D01*
X184920476Y-96590057D02*
X184968095Y-96542438D01*
X184968095Y-96542438D02*
X185063333Y-96494819D01*
X185063333Y-96494819D02*
X185301428Y-96494819D01*
X185301428Y-96494819D02*
X185396666Y-96542438D01*
X185396666Y-96542438D02*
X185444285Y-96590057D01*
X185444285Y-96590057D02*
X185491904Y-96685295D01*
X185491904Y-96685295D02*
X185491904Y-96780533D01*
X185491904Y-96780533D02*
X185444285Y-96923390D01*
X185444285Y-96923390D02*
X184872857Y-97494819D01*
X184872857Y-97494819D02*
X185491904Y-97494819D01*
X128084819Y-108356666D02*
X127608628Y-108689999D01*
X128084819Y-108928094D02*
X127084819Y-108928094D01*
X127084819Y-108928094D02*
X127084819Y-108547142D01*
X127084819Y-108547142D02*
X127132438Y-108451904D01*
X127132438Y-108451904D02*
X127180057Y-108404285D01*
X127180057Y-108404285D02*
X127275295Y-108356666D01*
X127275295Y-108356666D02*
X127418152Y-108356666D01*
X127418152Y-108356666D02*
X127513390Y-108404285D01*
X127513390Y-108404285D02*
X127561009Y-108451904D01*
X127561009Y-108451904D02*
X127608628Y-108547142D01*
X127608628Y-108547142D02*
X127608628Y-108928094D01*
X127084819Y-108023332D02*
X127084819Y-107404285D01*
X127084819Y-107404285D02*
X127465771Y-107737618D01*
X127465771Y-107737618D02*
X127465771Y-107594761D01*
X127465771Y-107594761D02*
X127513390Y-107499523D01*
X127513390Y-107499523D02*
X127561009Y-107451904D01*
X127561009Y-107451904D02*
X127656247Y-107404285D01*
X127656247Y-107404285D02*
X127894342Y-107404285D01*
X127894342Y-107404285D02*
X127989580Y-107451904D01*
X127989580Y-107451904D02*
X128037200Y-107499523D01*
X128037200Y-107499523D02*
X128084819Y-107594761D01*
X128084819Y-107594761D02*
X128084819Y-107880475D01*
X128084819Y-107880475D02*
X128037200Y-107975713D01*
X128037200Y-107975713D02*
X127989580Y-108023332D01*
X112555714Y-111994819D02*
X112555714Y-110994819D01*
X112555714Y-110994819D02*
X112793809Y-110994819D01*
X112793809Y-110994819D02*
X112936666Y-111042438D01*
X112936666Y-111042438D02*
X113031904Y-111137676D01*
X113031904Y-111137676D02*
X113079523Y-111232914D01*
X113079523Y-111232914D02*
X113127142Y-111423390D01*
X113127142Y-111423390D02*
X113127142Y-111566247D01*
X113127142Y-111566247D02*
X113079523Y-111756723D01*
X113079523Y-111756723D02*
X113031904Y-111851961D01*
X113031904Y-111851961D02*
X112936666Y-111947200D01*
X112936666Y-111947200D02*
X112793809Y-111994819D01*
X112793809Y-111994819D02*
X112555714Y-111994819D01*
X114079523Y-111994819D02*
X113508095Y-111994819D01*
X113793809Y-111994819D02*
X113793809Y-110994819D01*
X113793809Y-110994819D02*
X113698571Y-111137676D01*
X113698571Y-111137676D02*
X113603333Y-111232914D01*
X113603333Y-111232914D02*
X113508095Y-111280533D01*
X114984285Y-110994819D02*
X114508095Y-110994819D01*
X114508095Y-110994819D02*
X114460476Y-111471009D01*
X114460476Y-111471009D02*
X114508095Y-111423390D01*
X114508095Y-111423390D02*
X114603333Y-111375771D01*
X114603333Y-111375771D02*
X114841428Y-111375771D01*
X114841428Y-111375771D02*
X114936666Y-111423390D01*
X114936666Y-111423390D02*
X114984285Y-111471009D01*
X114984285Y-111471009D02*
X115031904Y-111566247D01*
X115031904Y-111566247D02*
X115031904Y-111804342D01*
X115031904Y-111804342D02*
X114984285Y-111899580D01*
X114984285Y-111899580D02*
X114936666Y-111947200D01*
X114936666Y-111947200D02*
X114841428Y-111994819D01*
X114841428Y-111994819D02*
X114603333Y-111994819D01*
X114603333Y-111994819D02*
X114508095Y-111947200D01*
X114508095Y-111947200D02*
X114460476Y-111899580D01*
D11*
%TO.C,D1*%
X85935000Y-106955000D02*
X85935000Y-110045000D01*
X85935000Y-106955170D02*
G75*
G02*
X91485000Y-108500000I2560000J-1544830D01*
G01*
X91485000Y-108500000D02*
G75*
G02*
X85935000Y-110044830I-2990000J0D01*
G01*
X90995000Y-108500000D02*
G75*
G02*
X85995000Y-108500000I-2500000J0D01*
G01*
X85995000Y-108500000D02*
G75*
G02*
X90995000Y-108500000I2500000J0D01*
G01*
%TO.C,R1*%
X117070000Y-102125000D02*
X126820000Y-102125000D01*
X117070000Y-111875000D02*
X117070000Y-102125000D01*
X126820000Y-102125000D02*
X126820000Y-111875000D01*
X126820000Y-111875000D02*
X117070000Y-111875000D01*
%TO.C,C1*%
X149445225Y-108025000D02*
X149945225Y-108025000D01*
X149695225Y-107775000D02*
X149695225Y-108275000D01*
X152250000Y-106920000D02*
X152250000Y-112080000D01*
X152290000Y-106920000D02*
X152290000Y-112080000D01*
X152330000Y-106921000D02*
X152330000Y-112079000D01*
X152370000Y-106923000D02*
X152370000Y-112077000D01*
X152410000Y-106925000D02*
X152410000Y-112075000D01*
X152450000Y-106928000D02*
X152450000Y-112072000D01*
X152490000Y-106931000D02*
X152490000Y-108460000D01*
X152490000Y-110540000D02*
X152490000Y-112069000D01*
X152530000Y-106935000D02*
X152530000Y-108460000D01*
X152530000Y-110540000D02*
X152530000Y-112065000D01*
X152570000Y-106940000D02*
X152570000Y-108460000D01*
X152570000Y-110540000D02*
X152570000Y-112060000D01*
X152610000Y-106945000D02*
X152610000Y-108460000D01*
X152610000Y-110540000D02*
X152610000Y-112055000D01*
X152650000Y-106951000D02*
X152650000Y-108460000D01*
X152650000Y-110540000D02*
X152650000Y-112049000D01*
X152690000Y-106957000D02*
X152690000Y-108460000D01*
X152690000Y-110540000D02*
X152690000Y-112043000D01*
X152730000Y-106964000D02*
X152730000Y-108460000D01*
X152730000Y-110540000D02*
X152730000Y-112036000D01*
X152770000Y-106972000D02*
X152770000Y-108460000D01*
X152770000Y-110540000D02*
X152770000Y-112028000D01*
X152810000Y-106981000D02*
X152810000Y-108460000D01*
X152810000Y-110540000D02*
X152810000Y-112019000D01*
X152850000Y-106990000D02*
X152850000Y-108460000D01*
X152850000Y-110540000D02*
X152850000Y-112010000D01*
X152890000Y-106999000D02*
X152890000Y-108460000D01*
X152890000Y-110540000D02*
X152890000Y-112001000D01*
X152930000Y-107010000D02*
X152930000Y-108460000D01*
X152930000Y-110540000D02*
X152930000Y-111990000D01*
X152970000Y-107021000D02*
X152970000Y-108460000D01*
X152970000Y-110540000D02*
X152970000Y-111979000D01*
X153010000Y-107033000D02*
X153010000Y-108460000D01*
X153010000Y-110540000D02*
X153010000Y-111967000D01*
X153050000Y-107045000D02*
X153050000Y-108460000D01*
X153050000Y-110540000D02*
X153050000Y-111955000D01*
X153090000Y-107058000D02*
X153090000Y-108460000D01*
X153090000Y-110540000D02*
X153090000Y-111942000D01*
X153130000Y-107072000D02*
X153130000Y-108460000D01*
X153130000Y-110540000D02*
X153130000Y-111928000D01*
X153170000Y-107087000D02*
X153170000Y-108460000D01*
X153170000Y-110540000D02*
X153170000Y-111913000D01*
X153210000Y-107102000D02*
X153210000Y-108460000D01*
X153210000Y-110540000D02*
X153210000Y-111898000D01*
X153250000Y-107118000D02*
X153250000Y-108460000D01*
X153250000Y-110540000D02*
X153250000Y-111882000D01*
X153290000Y-107135000D02*
X153290000Y-108460000D01*
X153290000Y-110540000D02*
X153290000Y-111865000D01*
X153330000Y-107153000D02*
X153330000Y-108460000D01*
X153330000Y-110540000D02*
X153330000Y-111847000D01*
X153370000Y-107171000D02*
X153370000Y-108460000D01*
X153370000Y-110540000D02*
X153370000Y-111829000D01*
X153410000Y-107191000D02*
X153410000Y-108460000D01*
X153410000Y-110540000D02*
X153410000Y-111809000D01*
X153450000Y-107211000D02*
X153450000Y-108460000D01*
X153450000Y-110540000D02*
X153450000Y-111789000D01*
X153490000Y-107232000D02*
X153490000Y-108460000D01*
X153490000Y-110540000D02*
X153490000Y-111768000D01*
X153530000Y-107254000D02*
X153530000Y-108460000D01*
X153530000Y-110540000D02*
X153530000Y-111746000D01*
X153570000Y-107277000D02*
X153570000Y-108460000D01*
X153570000Y-110540000D02*
X153570000Y-111723000D01*
X153610000Y-107301000D02*
X153610000Y-108460000D01*
X153610000Y-110540000D02*
X153610000Y-111699000D01*
X153650000Y-107325000D02*
X153650000Y-108460000D01*
X153650000Y-110540000D02*
X153650000Y-111675000D01*
X153690000Y-107351000D02*
X153690000Y-108460000D01*
X153690000Y-110540000D02*
X153690000Y-111649000D01*
X153730000Y-107378000D02*
X153730000Y-108460000D01*
X153730000Y-110540000D02*
X153730000Y-111622000D01*
X153770000Y-107406000D02*
X153770000Y-108460000D01*
X153770000Y-110540000D02*
X153770000Y-111594000D01*
X153810000Y-107435000D02*
X153810000Y-108460000D01*
X153810000Y-110540000D02*
X153810000Y-111565000D01*
X153850000Y-107465000D02*
X153850000Y-108460000D01*
X153850000Y-110540000D02*
X153850000Y-111535000D01*
X153890000Y-107497000D02*
X153890000Y-108460000D01*
X153890000Y-110540000D02*
X153890000Y-111503000D01*
X153930000Y-107530000D02*
X153930000Y-108460000D01*
X153930000Y-110540000D02*
X153930000Y-111470000D01*
X153970000Y-107564000D02*
X153970000Y-108460000D01*
X153970000Y-110540000D02*
X153970000Y-111436000D01*
X154010000Y-107599000D02*
X154010000Y-108460000D01*
X154010000Y-110540000D02*
X154010000Y-111401000D01*
X154050000Y-107636000D02*
X154050000Y-108460000D01*
X154050000Y-110540000D02*
X154050000Y-111364000D01*
X154090000Y-107675000D02*
X154090000Y-108460000D01*
X154090000Y-110540000D02*
X154090000Y-111325000D01*
X154130000Y-107715000D02*
X154130000Y-108460000D01*
X154130000Y-110540000D02*
X154130000Y-111285000D01*
X154170000Y-107757000D02*
X154170000Y-108460000D01*
X154170000Y-110540000D02*
X154170000Y-111243000D01*
X154210000Y-107801000D02*
X154210000Y-108460000D01*
X154210000Y-110540000D02*
X154210000Y-111199000D01*
X154250000Y-107848000D02*
X154250000Y-108460000D01*
X154250000Y-110540000D02*
X154250000Y-111152000D01*
X154290000Y-107896000D02*
X154290000Y-108460000D01*
X154290000Y-110540000D02*
X154290000Y-111104000D01*
X154330000Y-107947000D02*
X154330000Y-108460000D01*
X154330000Y-110540000D02*
X154330000Y-111053000D01*
X154370000Y-108001000D02*
X154370000Y-108460000D01*
X154370000Y-110540000D02*
X154370000Y-110999000D01*
X154410000Y-108057000D02*
X154410000Y-108460000D01*
X154410000Y-110540000D02*
X154410000Y-110943000D01*
X154450000Y-108117000D02*
X154450000Y-108460000D01*
X154450000Y-110540000D02*
X154450000Y-110883000D01*
X154490000Y-108181000D02*
X154490000Y-108460000D01*
X154490000Y-110540000D02*
X154490000Y-110819000D01*
X154530000Y-108249000D02*
X154530000Y-108460000D01*
X154530000Y-110540000D02*
X154530000Y-110751000D01*
X154570000Y-108323000D02*
X154570000Y-110677000D01*
X154610000Y-108402000D02*
X154610000Y-110598000D01*
X154650000Y-108489000D02*
X154650000Y-110511000D01*
X154690000Y-108586000D02*
X154690000Y-110414000D01*
X154730000Y-108695000D02*
X154730000Y-110305000D01*
X154770000Y-108823000D02*
X154770000Y-110177000D01*
X154810000Y-108983000D02*
X154810000Y-110017000D01*
X154850000Y-109217000D02*
X154850000Y-109783000D01*
X154870000Y-109500000D02*
G75*
G02*
X149630000Y-109500000I-2620000J0D01*
G01*
X149630000Y-109500000D02*
G75*
G02*
X154870000Y-109500000I2620000J0D01*
G01*
%TO.C,D16*%
X123170000Y-96455000D02*
X123170000Y-99545000D01*
X123170000Y-96455170D02*
G75*
G02*
X128720000Y-98000000I2560000J-1544830D01*
G01*
X128720000Y-98000000D02*
G75*
G02*
X123170000Y-99544830I-2990000J0D01*
G01*
X128230000Y-98000000D02*
G75*
G02*
X123230000Y-98000000I-2500000J0D01*
G01*
X123230000Y-98000000D02*
G75*
G02*
X128230000Y-98000000I2500000J0D01*
G01*
%TO.C,D13*%
X210170000Y-88455000D02*
X210170000Y-91545000D01*
X210170000Y-88455170D02*
G75*
G02*
X215720000Y-90000000I2560000J-1544830D01*
G01*
X215720000Y-90000000D02*
G75*
G02*
X210170000Y-91544830I-2990000J0D01*
G01*
X215230000Y-90000000D02*
G75*
G02*
X210230000Y-90000000I-2500000J0D01*
G01*
X210230000Y-90000000D02*
G75*
G02*
X215230000Y-90000000I2500000J0D01*
G01*
%TO.C,R2*%
X132130000Y-104920000D02*
X132460000Y-104920000D01*
X132130000Y-111460000D02*
X132130000Y-104920000D01*
X132460000Y-111460000D02*
X132130000Y-111460000D01*
X134540000Y-111460000D02*
X134870000Y-111460000D01*
X134870000Y-104920000D02*
X134540000Y-104920000D01*
X134870000Y-111460000D02*
X134870000Y-104920000D01*
%TO.C,D10*%
X192670000Y-104955000D02*
X192670000Y-108045000D01*
X192670000Y-104955170D02*
G75*
G02*
X198220000Y-106500000I2560000J-1544830D01*
G01*
X198220000Y-106500000D02*
G75*
G02*
X192670000Y-108044830I-2990000J0D01*
G01*
X197730000Y-106500000D02*
G75*
G02*
X192730000Y-106500000I-2500000J0D01*
G01*
X192730000Y-106500000D02*
G75*
G02*
X197730000Y-106500000I2500000J0D01*
G01*
%TO.C,D9*%
X200170000Y-97455000D02*
X200170000Y-100545000D01*
X200170000Y-97455170D02*
G75*
G02*
X205720000Y-99000000I2560000J-1544830D01*
G01*
X205720000Y-99000000D02*
G75*
G02*
X200170000Y-100544830I-2990000J0D01*
G01*
X205230000Y-99000000D02*
G75*
G02*
X200230000Y-99000000I-2500000J0D01*
G01*
X200230000Y-99000000D02*
G75*
G02*
X205230000Y-99000000I2500000J0D01*
G01*
%TO.C,D11*%
X114670000Y-93455000D02*
X114670000Y-96545000D01*
X114670000Y-93455170D02*
G75*
G02*
X120220000Y-95000000I2560000J-1544830D01*
G01*
X120220000Y-95000000D02*
G75*
G02*
X114670000Y-96544830I-2990000J0D01*
G01*
X119730000Y-95000000D02*
G75*
G02*
X114730000Y-95000000I-2500000J0D01*
G01*
X114730000Y-95000000D02*
G75*
G02*
X119730000Y-95000000I2500000J0D01*
G01*
%TO.C,D3*%
X102710000Y-99955000D02*
X102710000Y-103045000D01*
X102710000Y-99955170D02*
G75*
G02*
X108260000Y-101500000I2560000J-1544830D01*
G01*
X108260000Y-101500000D02*
G75*
G02*
X102710000Y-103044830I-2990000J0D01*
G01*
X107770000Y-101500000D02*
G75*
G02*
X102770000Y-101500000I-2500000J0D01*
G01*
X102770000Y-101500000D02*
G75*
G02*
X107770000Y-101500000I2500000J0D01*
G01*
%TO.C,U1*%
X149965000Y-98305000D02*
X154085000Y-98305000D01*
X149965000Y-98400000D02*
X149965000Y-98305000D01*
X149965000Y-103425000D02*
X149965000Y-103330000D01*
X154085000Y-98305000D02*
X154085000Y-98400000D01*
X154085000Y-103330000D02*
X154085000Y-103425000D01*
X154085000Y-103425000D02*
X149965000Y-103425000D01*
X149425000Y-98395000D02*
X149185000Y-98065000D01*
X149665000Y-98065000D01*
X149425000Y-98395000D01*
G36*
X149425000Y-98395000D02*
G01*
X149185000Y-98065000D01*
X149665000Y-98065000D01*
X149425000Y-98395000D01*
G37*
%TO.C,D2*%
X118170000Y-122455000D02*
X118170000Y-125545000D01*
X118170000Y-122455170D02*
G75*
G02*
X123720000Y-124000000I2560000J-1544830D01*
G01*
X123720000Y-124000000D02*
G75*
G02*
X118170000Y-125544830I-2990000J0D01*
G01*
X123230000Y-124000000D02*
G75*
G02*
X118230000Y-124000000I-2500000J0D01*
G01*
X118230000Y-124000000D02*
G75*
G02*
X123230000Y-124000000I2500000J0D01*
G01*
%TO.C,D6*%
X183170000Y-108955000D02*
X183170000Y-112045000D01*
X183170000Y-108955170D02*
G75*
G02*
X188720000Y-110500000I2560000J-1544830D01*
G01*
X188720000Y-110500000D02*
G75*
G02*
X183170000Y-112044830I-2990000J0D01*
G01*
X188230000Y-110500000D02*
G75*
G02*
X183230000Y-110500000I-2500000J0D01*
G01*
X183230000Y-110500000D02*
G75*
G02*
X188230000Y-110500000I2500000J0D01*
G01*
%TO.C,D7*%
X169170000Y-106955000D02*
X169170000Y-110045000D01*
X169170000Y-106955170D02*
G75*
G02*
X174720000Y-108500000I2560000J-1544830D01*
G01*
X174720000Y-108500000D02*
G75*
G02*
X169170000Y-110044830I-2990000J0D01*
G01*
X174230000Y-108500000D02*
G75*
G02*
X169230000Y-108500000I-2500000J0D01*
G01*
X169230000Y-108500000D02*
G75*
G02*
X174230000Y-108500000I2500000J0D01*
G01*
%TO.C,D5*%
X203170000Y-107455000D02*
X203170000Y-110545000D01*
X203170000Y-107455170D02*
G75*
G02*
X208720000Y-109000000I2560000J-1544830D01*
G01*
X208720000Y-109000000D02*
G75*
G02*
X203170000Y-110544830I-2990000J0D01*
G01*
X208230000Y-109000000D02*
G75*
G02*
X203230000Y-109000000I-2500000J0D01*
G01*
X203230000Y-109000000D02*
G75*
G02*
X208230000Y-109000000I2500000J0D01*
G01*
%TO.C,SW1*%
X137750000Y-102500000D02*
X137750000Y-104000000D01*
X139000000Y-106500000D02*
X143500000Y-106500000D01*
X143500000Y-100000000D02*
X139000000Y-100000000D01*
X144750000Y-104000000D02*
X144750000Y-102500000D01*
%TO.C,D8*%
X159670000Y-108455000D02*
X159670000Y-111545000D01*
X159670000Y-108455170D02*
G75*
G02*
X165220000Y-110000000I2560000J-1544830D01*
G01*
X165220000Y-110000000D02*
G75*
G02*
X159670000Y-111544830I-2990000J0D01*
G01*
X164730000Y-110000000D02*
G75*
G02*
X159730000Y-110000000I-2500000J0D01*
G01*
X159730000Y-110000000D02*
G75*
G02*
X164730000Y-110000000I2500000J0D01*
G01*
%TO.C,D14*%
X211670000Y-111955000D02*
X211670000Y-115045000D01*
X211670000Y-111955170D02*
G75*
G02*
X217220000Y-113500000I2560000J-1544830D01*
G01*
X217220000Y-113500000D02*
G75*
G02*
X211670000Y-115044830I-2990000J0D01*
G01*
X216730000Y-113500000D02*
G75*
G02*
X211730000Y-113500000I-2500000J0D01*
G01*
X211730000Y-113500000D02*
G75*
G02*
X216730000Y-113500000I2500000J0D01*
G01*
%TO.C,D4*%
X98935000Y-109955000D02*
X98935000Y-113045000D01*
X98935000Y-109955170D02*
G75*
G02*
X104485000Y-111500000I2560000J-1544830D01*
G01*
X104485000Y-111500000D02*
G75*
G02*
X98935000Y-113044830I-2990000J0D01*
G01*
X103995000Y-111500000D02*
G75*
G02*
X98995000Y-111500000I-2500000J0D01*
G01*
X98995000Y-111500000D02*
G75*
G02*
X103995000Y-111500000I2500000J0D01*
G01*
%TO.C,D12*%
X181670000Y-99455000D02*
X181670000Y-102545000D01*
X181670000Y-99455170D02*
G75*
G02*
X187220000Y-101000000I2560000J-1544830D01*
G01*
X187220000Y-101000000D02*
G75*
G02*
X181670000Y-102544830I-2990000J0D01*
G01*
X186730000Y-101000000D02*
G75*
G02*
X181730000Y-101000000I-2500000J0D01*
G01*
X181730000Y-101000000D02*
G75*
G02*
X186730000Y-101000000I2500000J0D01*
G01*
%TO.C,R3*%
X128630000Y-104920000D02*
X128960000Y-104920000D01*
X128630000Y-111460000D02*
X128630000Y-104920000D01*
X128960000Y-111460000D02*
X128630000Y-111460000D01*
X131040000Y-111460000D02*
X131370000Y-111460000D01*
X131370000Y-104920000D02*
X131040000Y-104920000D01*
X131370000Y-111460000D02*
X131370000Y-104920000D01*
%TO.C,D15*%
X111210000Y-113955000D02*
X111210000Y-117045000D01*
X111210000Y-113955170D02*
G75*
G02*
X116760000Y-115500000I2560000J-1544830D01*
G01*
X116760000Y-115500000D02*
G75*
G02*
X111210000Y-117044830I-2990000J0D01*
G01*
X116270000Y-115500000D02*
G75*
G02*
X111270000Y-115500000I-2500000J0D01*
G01*
X111270000Y-115500000D02*
G75*
G02*
X116270000Y-115500000I2500000J0D01*
G01*
%TD*%
M02*
