%TF.GenerationSoftware,KiCad,Pcbnew,9.0.6*%
%TF.CreationDate,2026-05-02T13:42:20+12:00*%
%TF.ProjectId,_autosave-baby shark,5f617574-6f73-4617-9665-2d6261627920,rev?*%
%TF.SameCoordinates,Original*%
%TF.FileFunction,Profile,NP*%
%FSLAX46Y46*%
G04 Gerber Fmt 4.6, Leading zero omitted, Abs format (unit mm)*
G04 Created by KiCad (PCBNEW 9.0.6) date 2026-05-02 13:42:20*
%MOMM*%
%LPD*%
G01*
G04 APERTURE LIST*
%TA.AperFunction,Profile*%
%ADD10C,0.050000*%
%TD*%
G04 APERTURE END LIST*
D10*
X179500000Y-98000000D02*
X185500000Y-92500000D01*
X128000000Y-126500000D02*
X130955103Y-132016901D01*
X129500000Y-94500000D02*
X133000000Y-95000000D01*
X128000000Y-126500000D02*
X121500000Y-114500000D01*
X136000000Y-95500000D02*
X154001865Y-96500000D01*
X222776762Y-117968484D02*
X222509771Y-117930791D01*
X92500000Y-101500000D02*
X77500000Y-108500000D01*
X189500000Y-110000000D02*
X196500000Y-110000000D01*
X212500000Y-95500000D02*
X216138708Y-93045805D01*
X107103159Y-97672755D02*
X101031081Y-99129548D01*
X185500000Y-92500000D02*
X187750000Y-99250000D01*
X207000000Y-87500000D02*
X222020000Y-80000000D01*
X211000002Y-105999999D02*
G75*
G02*
X209693379Y-100999994I6999998J4499999D01*
G01*
X196500000Y-110000000D02*
X201750000Y-115000000D01*
X222020000Y-80000000D02*
X219750000Y-88000000D01*
X188000000Y-99281417D02*
X196000000Y-100500000D01*
X93000000Y-114000000D02*
X103500000Y-115000000D01*
X222509771Y-117930791D02*
X201750000Y-115000000D01*
X130490000Y-80790000D02*
X125980000Y-88370000D01*
X209693379Y-100999994D02*
G75*
G02*
X211360932Y-96482757I8306621J-500006D01*
G01*
X160000000Y-113500000D02*
X166500000Y-118500000D01*
X125980000Y-88370000D02*
X126340000Y-91320000D01*
X211000002Y-106000000D02*
X227590000Y-116910000D01*
X212500000Y-95500000D02*
X211360931Y-96482758D01*
X188000000Y-99281417D02*
X187750000Y-99250000D01*
X122000235Y-114508843D02*
X160000000Y-113500000D01*
X122000000Y-85000000D02*
X125000000Y-83500000D01*
X179501269Y-111012530D02*
X189500000Y-116000000D01*
X229200000Y-117930791D02*
X222776762Y-117968484D01*
X126340000Y-91320000D02*
X129500000Y-94500000D01*
X130490000Y-80790000D02*
X125000000Y-83500000D01*
X77944085Y-108657579D02*
X93000000Y-114000000D01*
X117000000Y-88000000D02*
X122000000Y-85000000D01*
X189500000Y-116000000D02*
X189500000Y-110000000D01*
X207000000Y-87500000D02*
X196000000Y-100500000D01*
X154001865Y-96500000D02*
X179500000Y-98000000D01*
X169750000Y-112000000D02*
X179501269Y-111012530D01*
X117000000Y-127500000D02*
X132257552Y-134448451D01*
X132257552Y-134448451D02*
X130955103Y-132016901D01*
X92500000Y-101500000D02*
X100932571Y-99153182D01*
X77500000Y-108500000D02*
X77944085Y-108657579D01*
X107103159Y-97672755D02*
X117000000Y-88000000D01*
X122000235Y-114508843D02*
X121500000Y-114508843D01*
X103500000Y-115000000D02*
X117000000Y-127500000D01*
X133000000Y-95000000D02*
X136000000Y-95500000D01*
X227590000Y-116910000D02*
X229200000Y-117930791D01*
X219750000Y-88000000D02*
X216138708Y-93045805D01*
X100932571Y-99153182D02*
X101031081Y-99129548D01*
X166500000Y-118500000D02*
X169750000Y-112000000D01*
M02*
