%TF.GenerationSoftware,KiCad,Pcbnew,9.0.6*%
%TF.CreationDate,2026-05-02T13:42:19+12:00*%
%TF.ProjectId,_autosave-baby shark,5f617574-6f73-4617-9665-2d6261627920,rev?*%
%TF.SameCoordinates,Original*%
%TF.FileFunction,Copper,L2,Bot*%
%TF.FilePolarity,Positive*%
%FSLAX46Y46*%
G04 Gerber Fmt 4.6, Leading zero omitted, Abs format (unit mm)*
G04 Created by KiCad (PCBNEW 9.0.6) date 2026-05-02 13:42:19*
%MOMM*%
%LPD*%
G01*
G04 APERTURE LIST*
G04 Aperture macros list*
%AMRoundRect*
0 Rectangle with rounded corners*
0 $1 Rounding radius*
0 $2 $3 $4 $5 $6 $7 $8 $9 X,Y pos of 4 corners*
0 Add a 4 corners polygon primitive as box body*
4,1,4,$2,$3,$4,$5,$6,$7,$8,$9,$2,$3,0*
0 Add four circle primitives for the rounded corners*
1,1,$1+$1,$2,$3*
1,1,$1+$1,$4,$5*
1,1,$1+$1,$6,$7*
1,1,$1+$1,$8,$9*
0 Add four rect primitives between the rounded corners*
20,1,$1+$1,$2,$3,$4,$5,0*
20,1,$1+$1,$4,$5,$6,$7,0*
20,1,$1+$1,$6,$7,$8,$9,0*
20,1,$1+$1,$8,$9,$2,$3,0*%
G04 Aperture macros list end*
%TA.AperFunction,ComponentPad*%
%ADD10R,1.800000X1.800000*%
%TD*%
%TA.AperFunction,ComponentPad*%
%ADD11C,1.800000*%
%TD*%
%TA.AperFunction,ComponentPad*%
%ADD12C,1.440000*%
%TD*%
%TA.AperFunction,ComponentPad*%
%ADD13RoundRect,0.250000X-0.550000X-0.550000X0.550000X-0.550000X0.550000X0.550000X-0.550000X0.550000X0*%
%TD*%
%TA.AperFunction,ComponentPad*%
%ADD14C,1.600000*%
%TD*%
%TA.AperFunction,ComponentPad*%
%ADD15C,2.000000*%
%TD*%
%TA.AperFunction,ViaPad*%
%ADD16C,0.600000*%
%TD*%
%TA.AperFunction,Conductor*%
%ADD17C,0.200000*%
%TD*%
G04 APERTURE END LIST*
D10*
%TO.P,D1,1,K*%
%TO.N,GND*%
X87225000Y-108500000D03*
D11*
%TO.P,D1,2,A*%
%TO.N,TOUT*%
X89765000Y-108500000D03*
%TD*%
D12*
%TO.P,R1,1*%
%TO.N,Net-(U1-R)*%
X121960000Y-109540000D03*
%TO.P,R1,2*%
%TO.N,Net-(U1-DIS)*%
X124500000Y-107000000D03*
%TO.P,R1,3*%
%TO.N,N/C*%
X121960000Y-104460000D03*
%TD*%
D13*
%TO.P,C1,1*%
%TO.N,Net-(U1-THR)*%
X151000000Y-109500000D03*
D14*
%TO.P,C1,2*%
%TO.N,GND*%
X153500000Y-109500000D03*
%TD*%
D10*
%TO.P,D16,1,K*%
%TO.N,GND*%
X124460000Y-98000000D03*
D11*
%TO.P,D16,2,A*%
%TO.N,TOUT*%
X127000000Y-98000000D03*
%TD*%
D10*
%TO.P,D13,1,K*%
%TO.N,GND*%
X211460000Y-90000000D03*
D11*
%TO.P,D13,2,A*%
%TO.N,TOUT*%
X214000000Y-90000000D03*
%TD*%
D14*
%TO.P,R2,1*%
%TO.N,Net-(U1-DIS)*%
X133500000Y-112000000D03*
%TO.P,R2,2*%
%TO.N,Net-(U1-THR)*%
X133500000Y-104380000D03*
%TD*%
D10*
%TO.P,D10,1,K*%
%TO.N,GND*%
X193960000Y-106500000D03*
D11*
%TO.P,D10,2,A*%
%TO.N,TOUT*%
X196500000Y-106500000D03*
%TD*%
D10*
%TO.P,D9,1,K*%
%TO.N,GND*%
X201460000Y-99000000D03*
D11*
%TO.P,D9,2,A*%
%TO.N,TOUT*%
X204000000Y-99000000D03*
%TD*%
D10*
%TO.P,D11,1,K*%
%TO.N,GND*%
X115960000Y-95000000D03*
D11*
%TO.P,D11,2,A*%
%TO.N,TOUT*%
X118500000Y-95000000D03*
%TD*%
D10*
%TO.P,D3,1,K*%
%TO.N,GND*%
X104000000Y-101500000D03*
D11*
%TO.P,D3,2,A*%
%TO.N,TOUT*%
X106540000Y-101500000D03*
%TD*%
D13*
%TO.P,BT1,1,+*%
%TO.N,Net-(BT1-+)*%
X139400000Y-111500000D03*
D14*
%TO.P,BT1,2,-*%
%TO.N,GND*%
X143000000Y-111500000D03*
%TD*%
D10*
%TO.P,D2,1,K*%
%TO.N,GND*%
X119460000Y-124000000D03*
D11*
%TO.P,D2,2,A*%
%TO.N,TOUT*%
X122000000Y-124000000D03*
%TD*%
D10*
%TO.P,D6,1,K*%
%TO.N,GND*%
X184460000Y-110500000D03*
D11*
%TO.P,D6,2,A*%
%TO.N,TOUT*%
X187000000Y-110500000D03*
%TD*%
D10*
%TO.P,D7,1,K*%
%TO.N,GND*%
X170460000Y-108500000D03*
D11*
%TO.P,D7,2,A*%
%TO.N,TOUT*%
X173000000Y-108500000D03*
%TD*%
D10*
%TO.P,D5,1,K*%
%TO.N,GND*%
X204460000Y-109000000D03*
D11*
%TO.P,D5,2,A*%
%TO.N,TOUT*%
X207000000Y-109000000D03*
%TD*%
D15*
%TO.P,SW1,1,1*%
%TO.N,Net-(U1-R)*%
X138000000Y-101000000D03*
X144500000Y-101000000D03*
%TO.P,SW1,2,2*%
%TO.N,Net-(BT1-+)*%
X138000000Y-105500000D03*
X144500000Y-105500000D03*
%TD*%
D10*
%TO.P,D8,1,K*%
%TO.N,GND*%
X160960000Y-110000000D03*
D11*
%TO.P,D8,2,A*%
%TO.N,TOUT*%
X163500000Y-110000000D03*
%TD*%
D10*
%TO.P,D14,1,K*%
%TO.N,GND*%
X212960000Y-113500000D03*
D11*
%TO.P,D14,2,A*%
%TO.N,TOUT*%
X215500000Y-113500000D03*
%TD*%
D10*
%TO.P,D4,1,K*%
%TO.N,GND*%
X100225000Y-111500000D03*
D11*
%TO.P,D4,2,A*%
%TO.N,TOUT*%
X102765000Y-111500000D03*
%TD*%
D10*
%TO.P,D12,1,K*%
%TO.N,GND*%
X182960000Y-101000000D03*
D11*
%TO.P,D12,2,A*%
%TO.N,TOUT*%
X185500000Y-101000000D03*
%TD*%
D14*
%TO.P,R3,1*%
%TO.N,TOUT*%
X130000000Y-112000000D03*
%TO.P,R3,2*%
%TO.N,Net-(U1-Q)*%
X130000000Y-104380000D03*
%TD*%
D10*
%TO.P,D15,1,K*%
%TO.N,GND*%
X112500000Y-115500000D03*
D11*
%TO.P,D15,2,A*%
%TO.N,TOUT*%
X115040000Y-115500000D03*
%TD*%
D16*
%TO.N,GND*%
X146860000Y-101370000D03*
%TO.N,Net-(U1-DIS)*%
X153510000Y-104590000D03*
%TD*%
D17*
%TO.N,GND*%
X148450000Y-105830000D02*
X154350000Y-105830000D01*
X125670000Y-99210000D02*
X181170000Y-99210000D01*
X181170000Y-99210000D02*
X182960000Y-101000000D01*
X153500000Y-106680000D02*
X154350000Y-105830000D01*
X146860000Y-104240000D02*
X148450000Y-105830000D01*
X146860000Y-101370000D02*
X146860000Y-104240000D01*
X124460000Y-98000000D02*
X125670000Y-99210000D01*
X153500000Y-109500000D02*
X153500000Y-106680000D01*
%TO.N,TOUT*%
X202100000Y-101900000D02*
X186400000Y-101900000D01*
X214000000Y-90000000D02*
X202100000Y-101900000D01*
X186400000Y-101900000D02*
X185500000Y-101000000D01*
%TO.N,Net-(U1-DIS)*%
X149689000Y-100769000D02*
X153510000Y-104590000D01*
X146611057Y-100769000D02*
X149689000Y-100769000D01*
X133500000Y-112000000D02*
X135380057Y-112000000D01*
X135380057Y-112000000D02*
X146611057Y-100769000D01*
%TD*%
M02*
