%TF.GenerationSoftware,KiCad,Pcbnew,9.0.6*%
%TF.CreationDate,2026-05-02T13:42:19+12:00*%
%TF.ProjectId,_autosave-baby shark,5f617574-6f73-4617-9665-2d6261627920,rev?*%
%TF.SameCoordinates,Original*%
%TF.FileFunction,Copper,L1,Top*%
%TF.FilePolarity,Positive*%
%FSLAX46Y46*%
G04 Gerber Fmt 4.6, Leading zero omitted, Abs format (unit mm)*
G04 Created by KiCad (PCBNEW 9.0.6) date 2026-05-02 13:42:19*
%MOMM*%
%LPD*%
G01*
G04 APERTURE LIST*
G04 Aperture macros list*
%AMRoundRect*
0 Rectangle with rounded corners*
0 $1 Rounding radius*
0 $2 $3 $4 $5 $6 $7 $8 $9 X,Y pos of 4 corners*
0 Add a 4 corners polygon primitive as box body*
4,1,4,$2,$3,$4,$5,$6,$7,$8,$9,$2,$3,0*
0 Add four circle primitives for the rounded corners*
1,1,$1+$1,$2,$3*
1,1,$1+$1,$4,$5*
1,1,$1+$1,$6,$7*
1,1,$1+$1,$8,$9*
0 Add four rect primitives between the rounded corners*
20,1,$1+$1,$2,$3,$4,$5,0*
20,1,$1+$1,$4,$5,$6,$7,0*
20,1,$1+$1,$6,$7,$8,$9,0*
20,1,$1+$1,$8,$9,$2,$3,0*%
G04 Aperture macros list end*
%TA.AperFunction,ComponentPad*%
%ADD10R,1.800000X1.800000*%
%TD*%
%TA.AperFunction,ComponentPad*%
%ADD11C,1.800000*%
%TD*%
%TA.AperFunction,ComponentPad*%
%ADD12C,1.440000*%
%TD*%
%TA.AperFunction,ComponentPad*%
%ADD13RoundRect,0.250000X-0.550000X-0.550000X0.550000X-0.550000X0.550000X0.550000X-0.550000X0.550000X0*%
%TD*%
%TA.AperFunction,ComponentPad*%
%ADD14C,1.600000*%
%TD*%
%TA.AperFunction,SMDPad,CuDef*%
%ADD15RoundRect,0.150000X-0.825000X-0.150000X0.825000X-0.150000X0.825000X0.150000X-0.825000X0.150000X0*%
%TD*%
%TA.AperFunction,ComponentPad*%
%ADD16C,2.000000*%
%TD*%
%TA.AperFunction,ViaPad*%
%ADD17C,0.600000*%
%TD*%
%TA.AperFunction,Conductor*%
%ADD18C,0.200000*%
%TD*%
G04 APERTURE END LIST*
D10*
%TO.P,D1,1,K*%
%TO.N,GND*%
X87225000Y-108500000D03*
D11*
%TO.P,D1,2,A*%
%TO.N,TOUT*%
X89765000Y-108500000D03*
%TD*%
D12*
%TO.P,R1,1*%
%TO.N,Net-(U1-R)*%
X121960000Y-109540000D03*
%TO.P,R1,2*%
%TO.N,Net-(U1-DIS)*%
X124500000Y-107000000D03*
%TO.P,R1,3*%
%TO.N,N/C*%
X121960000Y-104460000D03*
%TD*%
D13*
%TO.P,C1,1*%
%TO.N,Net-(U1-THR)*%
X151000000Y-109500000D03*
D14*
%TO.P,C1,2*%
%TO.N,GND*%
X153500000Y-109500000D03*
%TD*%
D10*
%TO.P,D16,1,K*%
%TO.N,GND*%
X124460000Y-98000000D03*
D11*
%TO.P,D16,2,A*%
%TO.N,TOUT*%
X127000000Y-98000000D03*
%TD*%
D10*
%TO.P,D13,1,K*%
%TO.N,GND*%
X211460000Y-90000000D03*
D11*
%TO.P,D13,2,A*%
%TO.N,TOUT*%
X214000000Y-90000000D03*
%TD*%
D14*
%TO.P,R2,1*%
%TO.N,Net-(U1-DIS)*%
X133500000Y-112000000D03*
%TO.P,R2,2*%
%TO.N,Net-(U1-THR)*%
X133500000Y-104380000D03*
%TD*%
D10*
%TO.P,D10,1,K*%
%TO.N,GND*%
X193960000Y-106500000D03*
D11*
%TO.P,D10,2,A*%
%TO.N,TOUT*%
X196500000Y-106500000D03*
%TD*%
D10*
%TO.P,D9,1,K*%
%TO.N,GND*%
X201460000Y-99000000D03*
D11*
%TO.P,D9,2,A*%
%TO.N,TOUT*%
X204000000Y-99000000D03*
%TD*%
D10*
%TO.P,D11,1,K*%
%TO.N,GND*%
X115960000Y-95000000D03*
D11*
%TO.P,D11,2,A*%
%TO.N,TOUT*%
X118500000Y-95000000D03*
%TD*%
D10*
%TO.P,D3,1,K*%
%TO.N,GND*%
X104000000Y-101500000D03*
D11*
%TO.P,D3,2,A*%
%TO.N,TOUT*%
X106540000Y-101500000D03*
%TD*%
D13*
%TO.P,BT1,1,+*%
%TO.N,Net-(BT1-+)*%
X139400000Y-111500000D03*
D14*
%TO.P,BT1,2,-*%
%TO.N,GND*%
X143000000Y-111500000D03*
%TD*%
D15*
%TO.P,U1,1,GND*%
%TO.N,GND*%
X149550000Y-98960000D03*
%TO.P,U1,2,TR*%
%TO.N,Net-(U1-THR)*%
X149550000Y-100230000D03*
%TO.P,U1,3,Q*%
%TO.N,Net-(U1-Q)*%
X149550000Y-101500000D03*
%TO.P,U1,4,R*%
%TO.N,Net-(U1-R)*%
X149550000Y-102770000D03*
%TO.P,U1,5,CV*%
%TO.N,unconnected-(U1-CV-Pad5)*%
X154500000Y-102770000D03*
%TO.P,U1,6,THR*%
%TO.N,Net-(U1-THR)*%
X154500000Y-101500000D03*
%TO.P,U1,7,DIS*%
%TO.N,Net-(U1-DIS)*%
X154500000Y-100230000D03*
%TO.P,U1,8,VCC*%
%TO.N,Net-(U1-R)*%
X154500000Y-98960000D03*
%TD*%
D10*
%TO.P,D2,1,K*%
%TO.N,GND*%
X119460000Y-124000000D03*
D11*
%TO.P,D2,2,A*%
%TO.N,TOUT*%
X122000000Y-124000000D03*
%TD*%
D10*
%TO.P,D6,1,K*%
%TO.N,GND*%
X184460000Y-110500000D03*
D11*
%TO.P,D6,2,A*%
%TO.N,TOUT*%
X187000000Y-110500000D03*
%TD*%
D10*
%TO.P,D7,1,K*%
%TO.N,GND*%
X170460000Y-108500000D03*
D11*
%TO.P,D7,2,A*%
%TO.N,TOUT*%
X173000000Y-108500000D03*
%TD*%
D10*
%TO.P,D5,1,K*%
%TO.N,GND*%
X204460000Y-109000000D03*
D11*
%TO.P,D5,2,A*%
%TO.N,TOUT*%
X207000000Y-109000000D03*
%TD*%
D16*
%TO.P,SW1,1,1*%
%TO.N,Net-(U1-R)*%
X138000000Y-101000000D03*
X144500000Y-101000000D03*
%TO.P,SW1,2,2*%
%TO.N,Net-(BT1-+)*%
X138000000Y-105500000D03*
X144500000Y-105500000D03*
%TD*%
D10*
%TO.P,D8,1,K*%
%TO.N,GND*%
X160960000Y-110000000D03*
D11*
%TO.P,D8,2,A*%
%TO.N,TOUT*%
X163500000Y-110000000D03*
%TD*%
D10*
%TO.P,D14,1,K*%
%TO.N,GND*%
X212960000Y-113500000D03*
D11*
%TO.P,D14,2,A*%
%TO.N,TOUT*%
X215500000Y-113500000D03*
%TD*%
D10*
%TO.P,D4,1,K*%
%TO.N,GND*%
X100225000Y-111500000D03*
D11*
%TO.P,D4,2,A*%
%TO.N,TOUT*%
X102765000Y-111500000D03*
%TD*%
D10*
%TO.P,D12,1,K*%
%TO.N,GND*%
X182960000Y-101000000D03*
D11*
%TO.P,D12,2,A*%
%TO.N,TOUT*%
X185500000Y-101000000D03*
%TD*%
D14*
%TO.P,R3,1*%
%TO.N,TOUT*%
X130000000Y-112000000D03*
%TO.P,R3,2*%
%TO.N,Net-(U1-Q)*%
X130000000Y-104380000D03*
%TD*%
D10*
%TO.P,D15,1,K*%
%TO.N,GND*%
X112500000Y-115500000D03*
D11*
%TO.P,D15,2,A*%
%TO.N,TOUT*%
X115040000Y-115500000D03*
%TD*%
D17*
%TO.N,GND*%
X146860000Y-101370000D03*
%TO.N,Net-(U1-DIS)*%
X153510000Y-104590000D03*
%TD*%
D18*
%TO.N,Net-(BT1-+)*%
X142970000Y-107030000D02*
X144500000Y-105500000D01*
X139400000Y-107030000D02*
X142970000Y-107030000D01*
X139400000Y-107030000D02*
X139400000Y-106900000D01*
X139400000Y-111500000D02*
X139400000Y-107030000D01*
X139400000Y-106900000D02*
X138000000Y-105500000D01*
%TO.N,GND*%
X114738471Y-95000000D02*
X107037471Y-102701000D01*
X148575001Y-98960000D02*
X146860000Y-100675001D01*
X143000000Y-111500000D02*
X159460000Y-111500000D01*
X100225000Y-111500000D02*
X102225000Y-113500000D01*
X102225000Y-113500000D02*
X114738471Y-113500000D01*
X149550000Y-99080000D02*
X149520000Y-99110000D01*
X116241000Y-115002529D02*
X116241000Y-115997471D01*
X181259000Y-107299000D02*
X184460000Y-110500000D01*
X118460000Y-97500000D02*
X115960000Y-95000000D01*
X103966000Y-111002529D02*
X103966000Y-111997471D01*
X201460000Y-99000000D02*
X210460000Y-90000000D01*
X113701000Y-116701000D02*
X112500000Y-115500000D01*
X112500000Y-117040000D02*
X119460000Y-124000000D01*
X103262471Y-112701000D02*
X101426000Y-112701000D01*
X162101000Y-100899000D02*
X174859000Y-100899000D01*
X88623000Y-109898000D02*
X102861471Y-109898000D01*
X101426000Y-112701000D02*
X100225000Y-111500000D01*
X200759000Y-105299000D02*
X204460000Y-109000000D01*
X201460000Y-100900000D02*
X201460000Y-99000000D01*
X212960000Y-112400000D02*
X212960000Y-113500000D01*
X205661000Y-107799000D02*
X208359000Y-107799000D01*
X184460000Y-110500000D02*
X188460000Y-106500000D01*
X103966000Y-111997471D02*
X103262471Y-112701000D01*
X146860000Y-100675001D02*
X146860000Y-101370000D01*
X208359000Y-107799000D02*
X212960000Y-112400000D01*
X171661000Y-107299000D02*
X181259000Y-107299000D01*
X107037471Y-102701000D02*
X105201000Y-102701000D01*
X112500000Y-115500000D02*
X112500000Y-117040000D01*
X184161000Y-102201000D02*
X182960000Y-101000000D01*
X213701000Y-112502529D02*
X213701000Y-113497471D01*
X149550000Y-98960000D02*
X148575001Y-98960000D01*
X210460000Y-90000000D02*
X211460000Y-90000000D01*
X124500000Y-97500000D02*
X118460000Y-97500000D01*
X115960000Y-95000000D02*
X114738471Y-95000000D01*
X95799000Y-109701000D02*
X88426000Y-109701000D01*
X211460000Y-90000000D02*
X207393265Y-90000000D01*
X114738471Y-113500000D02*
X116241000Y-115002529D01*
X195192265Y-102201000D02*
X184161000Y-102201000D01*
X149550000Y-98960000D02*
X149550000Y-99080000D01*
X159460000Y-111500000D02*
X160960000Y-110000000D01*
X102861471Y-109898000D02*
X103966000Y-111002529D01*
X204460000Y-109000000D02*
X205661000Y-107799000D01*
X153500000Y-109500000D02*
X162101000Y-100899000D01*
X105201000Y-102701000D02*
X104000000Y-101500000D01*
X162460000Y-108500000D02*
X170460000Y-108500000D01*
X160960000Y-110000000D02*
X162460000Y-108500000D01*
X188460000Y-106500000D02*
X193960000Y-106500000D01*
X115537471Y-116701000D02*
X113701000Y-116701000D01*
X182960000Y-101000000D02*
X182870000Y-100910000D01*
X87225000Y-108500000D02*
X88623000Y-109898000D01*
X174859000Y-100899000D02*
X184460000Y-110500000D01*
X193960000Y-106500000D02*
X195161000Y-105299000D01*
X116241000Y-115997471D02*
X115537471Y-116701000D01*
X212960000Y-112400000D02*
X201460000Y-100900000D01*
X207393265Y-90000000D02*
X195192265Y-102201000D01*
X104000000Y-101500000D02*
X95799000Y-109701000D01*
X88426000Y-109701000D02*
X87225000Y-108500000D01*
X195161000Y-105299000D02*
X200759000Y-105299000D01*
X170460000Y-108500000D02*
X171661000Y-107299000D01*
X212997471Y-114201000D02*
X213701000Y-113497471D01*
%TO.N,Net-(U1-THR)*%
X154153032Y-101500000D02*
X154500000Y-101500000D01*
X152073031Y-103580001D02*
X154153032Y-101500000D01*
X152815032Y-101500000D02*
X154500000Y-101500000D01*
X151545032Y-100230000D02*
X152815032Y-101500000D01*
X153525001Y-101500000D02*
X154500000Y-101500000D01*
X151000000Y-109500000D02*
X151000000Y-104025001D01*
X153447500Y-101577500D02*
X153525001Y-101500000D01*
X151000000Y-104025001D02*
X153447500Y-101577500D01*
X149550000Y-100230000D02*
X151545032Y-100230000D01*
X134299999Y-103580001D02*
X152073031Y-103580001D01*
X133500000Y-104380000D02*
X134299999Y-103580001D01*
%TO.N,TOUT*%
X163826476Y-97680000D02*
X154836968Y-97680000D01*
X184299000Y-99799000D02*
X177243796Y-99799000D01*
X100426573Y-114103573D02*
X113643573Y-114103573D01*
X116564000Y-93064000D02*
X118500000Y-95000000D01*
X215500000Y-113500000D02*
X204000000Y-102000000D01*
X101564000Y-110299000D02*
X99024000Y-110299000D01*
X187000000Y-110500000D02*
X188101000Y-109399000D01*
X125839000Y-96299000D02*
X119799000Y-96299000D01*
X130000000Y-112000000D02*
X123084974Y-112000000D01*
X204000000Y-99000000D02*
X205000000Y-99000000D01*
X204000000Y-102000000D02*
X204000000Y-99000000D01*
X211759000Y-114701000D02*
X214299000Y-114701000D01*
X86024000Y-107299000D02*
X86024000Y-109701000D01*
X154275080Y-97118112D02*
X153967140Y-97099997D01*
X120899000Y-122899000D02*
X122000000Y-124000000D01*
X123084974Y-112000000D02*
X120899000Y-114185974D01*
X203500000Y-112500000D02*
X207000000Y-109000000D01*
X146226380Y-96670000D02*
X128330000Y-96670000D01*
X118259000Y-125201000D02*
X120799000Y-125201000D01*
X185500000Y-101000000D02*
X184299000Y-99799000D01*
X113643573Y-114103573D02*
X115040000Y-115500000D01*
X163500000Y-110000000D02*
X171500000Y-110000000D01*
X99024000Y-110299000D02*
X99024000Y-112701000D01*
X205000000Y-99000000D02*
X214000000Y-90000000D01*
X120799000Y-125201000D02*
X122000000Y-124000000D01*
X101099211Y-99731257D02*
X92330468Y-108500000D01*
X114024000Y-91799000D02*
X106540000Y-99283000D01*
X111299000Y-114299000D02*
X111299000Y-118241000D01*
X99024000Y-112701000D02*
X100426573Y-114103573D01*
X86024000Y-109701000D02*
X86622000Y-110299000D01*
X207000000Y-109000000D02*
X207000000Y-109942000D01*
X86622000Y-110299000D02*
X101564000Y-110299000D01*
X115040000Y-115500000D02*
X113839000Y-114299000D01*
X173000000Y-108500000D02*
X179802000Y-108500000D01*
X116564000Y-91799000D02*
X116564000Y-93064000D01*
X88564000Y-107299000D02*
X86024000Y-107299000D01*
X202500000Y-112500000D02*
X203500000Y-112500000D01*
X111299000Y-118241000D02*
X118259000Y-125201000D01*
X183003000Y-111701000D02*
X185799000Y-111701000D01*
X104771257Y-99731257D02*
X101099211Y-99731257D01*
X196500000Y-106500000D02*
X202500000Y-112500000D01*
X153967140Y-97099997D02*
X146226380Y-96670000D01*
X193601000Y-109399000D02*
X196500000Y-106500000D01*
X119799000Y-96299000D02*
X118500000Y-95000000D01*
X171500000Y-110000000D02*
X173000000Y-108500000D01*
X179802000Y-108500000D02*
X183003000Y-111701000D01*
X89765000Y-108500000D02*
X88564000Y-107299000D01*
X120899000Y-114185974D02*
X120899000Y-122899000D01*
X185799000Y-111701000D02*
X187000000Y-110500000D01*
X113839000Y-114299000D02*
X111299000Y-114299000D01*
X214299000Y-114701000D02*
X215500000Y-113500000D01*
X116564000Y-91799000D02*
X114024000Y-91799000D01*
X92330468Y-108500000D02*
X89765000Y-108500000D01*
X207000000Y-109942000D02*
X211759000Y-114701000D01*
X125839000Y-96299000D02*
X125839000Y-96839000D01*
X175830995Y-98386199D02*
X163826476Y-97680000D01*
X125839000Y-96839000D02*
X127000000Y-98000000D01*
X154836968Y-97680000D02*
X154275080Y-97118112D01*
X106540000Y-101500000D02*
X104771257Y-99731257D01*
X106540000Y-99283000D02*
X106540000Y-101500000D01*
X177243796Y-99799000D02*
X175830995Y-98386199D01*
X188101000Y-109399000D02*
X193601000Y-109399000D01*
X102765000Y-111500000D02*
X101564000Y-110299000D01*
X128330000Y-96670000D02*
X127000000Y-98000000D01*
%TO.N,Net-(U1-R)*%
X121960000Y-109540000D02*
X121960000Y-106040000D01*
X153899000Y-98359000D02*
X154500000Y-98960000D01*
X150565968Y-100899000D02*
X150826000Y-101159032D01*
X147462032Y-101971000D02*
X148534032Y-100899000D01*
X148534032Y-100899000D02*
X150565968Y-100899000D01*
X145471000Y-101971000D02*
X147462032Y-101971000D01*
X150524999Y-102770000D02*
X149550000Y-102770000D01*
X127000000Y-101000000D02*
X138000000Y-101000000D01*
X144500000Y-101000000D02*
X145471000Y-101971000D01*
X147141000Y-98359000D02*
X153899000Y-98359000D01*
X150826000Y-101159032D02*
X150826000Y-102468999D01*
X153525001Y-98960000D02*
X154500000Y-98960000D01*
X144500000Y-101000000D02*
X147141000Y-98359000D01*
X150826000Y-102468999D02*
X150524999Y-102770000D01*
X144500000Y-101000000D02*
X145000000Y-101000000D01*
X138000000Y-101000000D02*
X144500000Y-101000000D01*
X121960000Y-106040000D02*
X127000000Y-101000000D01*
%TO.N,Net-(U1-DIS)*%
X153510000Y-104590000D02*
X154296968Y-104590000D01*
X155776000Y-103110968D02*
X155776000Y-100531001D01*
X126557050Y-107000000D02*
X131557050Y-112000000D01*
X155776000Y-100531001D02*
X155474999Y-100230000D01*
X131557050Y-112000000D02*
X133500000Y-112000000D01*
X154296968Y-104590000D02*
X155776000Y-103110968D01*
X155474999Y-100230000D02*
X154500000Y-100230000D01*
X124500000Y-107000000D02*
X126557050Y-107000000D01*
%TO.N,Net-(U1-Q)*%
X147075001Y-103000000D02*
X148575001Y-101500000D01*
X131380000Y-103000000D02*
X147075001Y-103000000D01*
X130000000Y-104380000D02*
X131380000Y-103000000D01*
X148575001Y-101500000D02*
X149550000Y-101500000D01*
%TD*%
M02*
